<svg xmlns="http://www.w3.org/2000/svg" viewBox="0 0 100 100">
  <path fill="#e2e4e9" d="M50 5 L95 30 L95 70 L50 95 L5 70 L5 30 Z" />
  <path fill="#ffffff" d="M50 15 L85 35 L85 65 L50 85 L15 65 L15 35 Z" />
  
  <path fill="#e2e4e9" d="M45 25 L45 80 L35 80 L35 40 L25 40 L25 50 L15 50 L15 35 Z" />
  <path fill="#e2e4e9" d="M55 25 L65 25 L65 35 L55 35 Z" />
  <!-- N, T, A representation simplified -->
  <path fill="#e2e4e9" d="M42 22 L58 22 L58 35 L52 35 L52 80 L48 80 L48 35 L42 35 Z" />
  <path fill="#e2e4e9" d="M22 45 L34 38 L34 80 L28 80 L28 55 L22 60 L22 80 L16 80 L16 48 L22 45 Z" />
  <path fill="#e2e4e9" d="M78 45 L66 38 L66 80 L72 80 L72 65 L78 65 L78 80 L84 80 L84 48 L78 45 Z" />
  <path fill="#ffffff" d="M72 55 L78 55 L78 50 L72 50 Z" />
</svg>
